<svg id="Ebene_1" data-name="Ebene 1" xmlns="http://www.w3.org/2000/svg" viewBox="0 0 236 150"><title>archtober-logo-Zeichenfläche 1</title><path d="M0,0V150H236V0ZM230,145H6V6H230Z"/><path d="M19.72,32h10l2,6h6.07l-10-26h-6L11.74,38h5.89Zm5-14h.07l3.36,10h-6.9Z"/><path d="M44,29.47a10.85,10.85,0,0,1,.24-2.42,5.38,5.38,0,0,1,.87-2,4.34,4.34,0,0,1,1.62-1.33,5.68,5.68,0,0,1,2.46-.48,8.11,8.11,0,0,1,1,.06,3.1,3.1,0,0,1,.85.13V18.54c0-.12-.76-.18-1.11-.18a6.17,6.17,0,0,0-1.92.3,7.13,7.13,0,0,0-1.74.83,5.77,5.77,0,0,0-1.45,1.08c-.42.51-.75,1.43-1,1.43H44V19H39V38h5Z"/><path d="M51.57,32.77a9.14,9.14,0,0,0,2,3.12,8.85,8.85,0,0,0,3.07,2,10.68,10.68,0,0,0,4,.72,9.53,9.53,0,0,0,6.3-1.9,9.89,9.89,0,0,0,3-5.74H64.77a5.32,5.32,0,0,1-1.28,2.74,3.86,3.86,0,0,1-2.93,1,3.78,3.78,0,0,1-2.09-.59,4.29,4.29,0,0,1-1.36-1.45,6.47,6.47,0,0,1-.73-2,10.56,10.56,0,0,1-.22-2.13,10.92,10.92,0,0,1,.22-2.19,6.5,6.5,0,0,1,.77-2,4.52,4.52,0,0,1,1.39-1.49,3.7,3.7,0,0,1,2.13-.42c2.26,0,3.57.49,3.92,3.49h5.18a5.66,5.66,0,0,0-.89-3.39,7.61,7.61,0,0,0-2-2.36A8.62,8.62,0,0,0,64,18.85a12.07,12.07,0,0,0-3.3-.47,10.56,10.56,0,0,0-4.18.77,8.58,8.58,0,0,0-3.09,2.18,9.15,9.15,0,0,0-1.92,3.31,12.73,12.73,0,0,0-.66,4.16A10.82,10.82,0,0,0,51.57,32.77Z"/><path d="M76,28.05a7,7,0,0,1,1.14-4.23,3.82,3.82,0,0,1,3.21-1.29,3.12,3.12,0,0,1,2.78,1.18A6.7,6.7,0,0,1,84,27.27V38h5V26.3A15.82,15.82,0,0,0,88.75,23a6.18,6.18,0,0,0-1.07-2.5,5.07,5.07,0,0,0-2.13-1.6,8.87,8.87,0,0,0-3.48-.58,7.35,7.35,0,0,0-3,1A3.65,3.65,0,0,0,76.45,22H76V12H71V38h5Z"/><path d="M93,33.8a5,5,0,0,0,.54,2.35,3.68,3.68,0,0,0,1.36,1.38,5.61,5.61,0,0,0,1.95.65,15.8,15.8,0,0,0,2.34.17c.52,0,.91,0,1.46,0a5.1,5.1,0,0,0,1.35-.15v-4.1s-.37.09-.64.11a6.46,6.46,0,0,1-.78,0,3.11,3.11,0,0,1-2-.45A2.52,2.52,0,0,1,98,32V22h4V19H98V13H93v6H90v3h3Z"/><path d="M105.31,35.9a8.8,8.8,0,0,0,3.13,2,11.34,11.34,0,0,0,4.1.7,11.51,11.51,0,0,0,4.13-.7,8.8,8.8,0,0,0,3.15-2,8.94,8.94,0,0,0,2-3.19,11.69,11.69,0,0,0,.71-4.17,11.94,11.94,0,0,0-.71-4.2,8.82,8.82,0,0,0-5.16-5.26,11.29,11.29,0,0,0-4.13-.72,11.13,11.13,0,0,0-4.1.72,8.86,8.86,0,0,0-5.14,5.26,11.72,11.72,0,0,0-.71,4.2,11.47,11.47,0,0,0,.71,4.17A8.94,8.94,0,0,0,105.31,35.9Zm2.8-9.64a5.82,5.82,0,0,1,.76-2,4.08,4.08,0,0,1,3.67-1.94,4.37,4.37,0,0,1,2.26.54,4.17,4.17,0,0,1,1.46,1.4,5.82,5.82,0,0,1,.76,2,11.59,11.59,0,0,1,.22,2.28,11.15,11.15,0,0,1-.22,2.25,6,6,0,0,1-.76,2,4.09,4.09,0,0,1-1.46,1.4,4.47,4.47,0,0,1-2.26.52,4.33,4.33,0,0,1-2.23-.52,4.11,4.11,0,0,1-1.44-1.4,6,6,0,0,1-.76-2,11.15,11.15,0,0,1-.23-2.25A11.6,11.6,0,0,1,108.11,26.26Z"/><path d="M129,36h0a4.81,4.81,0,0,0,2.54,2.12,10.11,10.11,0,0,0,3.8.6,7.49,7.49,0,0,0,5.43-2.48,9.31,9.31,0,0,0,1.84-3.16,13.06,13.06,0,0,0,.71-4.57,13,13,0,0,0-.71-4.57,9.22,9.22,0,0,0-1.84-3.16,7.32,7.32,0,0,0-5.43-2.42,8.82,8.82,0,0,0-3.45.57A5.4,5.4,0,0,0,129.25,21H129V12h-5V38h5Zm.25-9.81a6.3,6.3,0,0,1,.82-2,4.39,4.39,0,0,1,1.42-1.36,4.35,4.35,0,0,1,4,0,4.3,4.3,0,0,1,1.39,1.36,6.09,6.09,0,0,1,.83,2,10.57,10.57,0,0,1,0,4.66,6.18,6.18,0,0,1-.83,2,4.3,4.3,0,0,1-1.39,1.36,4.35,4.35,0,0,1-4,0,4.39,4.39,0,0,1-1.42-1.36,6.4,6.4,0,0,1-.82-2,10.57,10.57,0,0,1,0-4.66Z"/><path d="M147,35.85a8.75,8.75,0,0,0,3.09,2.07,11.09,11.09,0,0,0,4.1.72,10.14,10.14,0,0,0,5.58-1.58c1.54-1,2.68-2.06,3.43-5.06H158.5c-.17,1-.64,1.26-1.41,1.79a5.55,5.55,0,0,1-6.18-.18c-.8-.77-1.23-1.61-1.3-3.61h13.88a12.87,12.87,0,0,0-.37-4.39,10.87,10.87,0,0,0-1.69-3.7,8.81,8.81,0,0,0-3-2.58,9.19,9.19,0,0,0-4.28-1,9.86,9.86,0,0,0-4,.78A9.32,9.32,0,0,0,145,24.51a11.13,11.13,0,0,0-.71,4,11.72,11.72,0,0,0,.69,4.1A9.47,9.47,0,0,0,147,35.85ZM149.85,25a3.4,3.4,0,0,1,.7-1.23,4,4,0,0,1,1.34-1,4.6,4.6,0,0,1,2.11-.4,3.66,3.66,0,0,1,2.88.83A7,7,0,0,1,158.21,26h-8.6S149.71,25.43,149.85,25Z"/><path d="M170,29.47a10.87,10.87,0,0,1,.23-2.42,5.21,5.21,0,0,1,.86-2,4.34,4.34,0,0,1,1.62-1.33,5.63,5.63,0,0,1,2.45-.48,8.31,8.31,0,0,1,1,.06,3.21,3.21,0,0,1,.86.13V18.54c0-.12-.78-.18-1.12-.18a6.19,6.19,0,0,0-1.93.3,7,7,0,0,0-1.74.83,5.77,5.77,0,0,0-1.45,1.08c-.43.51-.76,1.43-1,1.43H170V19h-5V38h5Z"/></svg>