<svg xmlns="http://www.w3.org/2000/svg" viewBox="0 0 831.97 618.56"><defs><style>.cls-1{fill:#789904;}</style></defs><title>archtober-silhouttesArtboard 17</title><g id="art"><path class="cls-1" d="M387.9,17.92l35.87,5.61-25.25,141.2,44.88,6.54L815.57,392.89l-4.21,97.72L303.61,600l-21-55.63-18.24-18.71-16.83-9.35-14.49-7-24.78-8.42-23.38-5.61-23.38-4.67L139,486.4l-21.51-4.21-26.18-2.8-22-1.87-26.18-2.34-25.25-.47L31.49,358.29l33.2-6.54,21.51-5.61,27.58-7.49,24.78-7.48,24.78-9,25.25-11.1,24.78-13.56,26.18-16.83,27.12-22.44,25.25-27.59,14.49-15.43,18.7-24.31L351.3,130.6,387.9,17.92M376.9,0l-4.22,13-36.37,112-25.09,57.79-17,22.12L280.26,219.7l-.08.07-.07.08-24.5,26.77-25.52,21.12-24.9,16L181.52,296.7l-24.14,10.61L133.51,316l-24.14,7.29-27.28,7.4-21,5.47L28.4,342.59,17,344.85,15.6,356.44,2,472.86,0,490.38l17.64.33,24.68.46,25.62,2.28H68l21.8,1.85L115.13,498,136,502.1H136l.06,0,22.35,4.19,23,4.59,22.37,5.37,23.15,7.86,13.19,6.39,14.39,8,14.27,14.64,19.86,52.51,4.87,12.89,13.47-2.9L814.73,506.25l12.09-2.6.53-12.35,4.21-97.72L832,384l-8.21-4.89L451.59,157.52l-2.73-1.62-3.15-.46-28.53-4.16L439.52,26.34l2.87-16.09L426.24,7.72,390.37,2.11,376.9,0Z"/></g></svg>