<svg xmlns="http://www.w3.org/2000/svg" viewBox="0 0 797.64 582.1"><defs><style>.cls-1{fill:#789904;}</style></defs><title>archtober-silhoutte-Artboard 17</title><g id="art"><polygon class="cls-1" points="793.43 472.69 797.64 374.97 425.47 153.36 380.58 146.81 405.83 5.61 369.97 0 333.36 112.68 307.18 172.99 288.48 197.31 273.98 212.74 248.74 240.32 221.62 262.76 195.44 279.59 170.66 293.15 145.41 304.25 120.63 313.26 95.85 320.74 68.26 328.22 46.76 333.83 13.56 340.38 0 456.8 25.25 457.26 51.43 459.6 73.41 461.47 99.59 464.28 121.09 468.48 143.54 472.69 166.91 477.37 190.29 482.98 215.07 491.39 229.57 498.41 246.4 507.76 264.63 526.46 285.67 582.1 793.43 472.69"/></g></svg>