<svg xmlns="http://www.w3.org/2000/svg" viewBox="0 0 837.73 413.5"><defs><style>.cls-1{fill:#c028b9;}</style></defs><title>archtober-silhouttesArtboard 13</title><g id="art"><path class="cls-1" d="M479.28,16.88,703.17,44.43,701,50.34l.24,3.44,99.15,19.68V86l13.29,2.71-2.46,4.67L807,98.56l-6.4.74,1.23,271.86-40.1,3.2-19.93-2-33.22.25v10.58L682.5,384.7l-25.34-6.4-40.1,9.84-109,6.15L506.84,396l-36.66,1.48L16,382.73V225.51l301.14-46.74V88.72L312,86l-.49-3-5.91-7.14,11.56-2.46v-15L463.29,28H469l10.33-11.07M473.14,0l-5.56,6L462,12h-.35l-1.62.33L313.88,42.79l-12.74,2.66V60.51l-24.73,5.26,16.84,20.35,3.16,3.82,1.09,6.55,3.64,1.91v66.66L13.55,209.7,0,211.8V398.22l15.48.5,454.18,14.76.58,0,.58,0L507.48,412l7.82-.32,1.33-1.85L618,404.11l1.48-.08,1.43-.35,36.24-8.89,21.48,5.42,2.37.6,2.45-.14,26.08-1.48,15.09-.85v-9.82l16.49-.12,19.08,1.88,1.43.14,1.42-.11,40.1-3.2,14.8-1.18-.07-14.84-1.17-259,2.77-3.42,4.18-5.17,1-1.22.73-1.4,2.46-4.67,9.93-18.87L816.83,73l-.48-.1V60.33l-12.88-2.56-82.1-16.3L725.28,31l-20.16-2.48L481.23,1l-8.09-1Z"/></g></svg>