<svg xmlns="http://www.w3.org/2000/svg" viewBox="0 0 832.8 595.91"><defs><style>.cls-1{fill:#ff4438;}</style></defs><title>archtober-silhouttesArtboard 14</title><g id="art"><path class="cls-1" d="M494.87,16C707,16,755.73,127.69,759.09,152.85l-1.55,87.52c-1.55,10.84-8.68,20.14-8.68,20.14L738.8,303.26l-7,29.27,8.83-2.32a88.15,88.15,0,0,1,11-.73c16.93,0,21.53,6.07,21.53,6.07l38.11,44.38,5.11,142.66L686.29,571.15l-38.57.93s-48.1-2.79-48.79-3.25h-.12c-2.92,0-59.51,10.93-59.51,10.93L42.46,526.31V489.83l-8.36-1.39.23-56.69,28.11-7.21L23.17,422l-4.41-21.38,47.4-12.08-10.69-5.81-5.11-11.15c6-5.11,28.13-7.21,47.18-7.44,1.27,0,2.59,0,3.95,0,19.07,0,46,1.43,46,1.43-.23-6,1.39-8.13,1.39-8.13,2.33-3,15.57-5.58,21.61-5.81s44.38-.7,44.38-.7l3.25,4.88v5.57l21.84-7-.46-3.71L230.66,313l-10.46-46.7s-10.92-13.25-11.61-27.89c-.36-7.43-1.4-91.77-1.4-91.77,3.63-17.81,47-126.86,277.73-130.58,3.37,0,6.67-.08,9.95-.08m0-16h0c-3.4,0-6.73,0-10.19.08C430.15,1,381.51,7.74,340.08,20.23c-34.61,10.43-64.47,24.91-88.75,43-18.82,14-34,30-45.13,47.38-10.89,17-14,29.42-14.69,32.82l-.34,1.68,0,1.72c.11,8.66,1.06,84.84,1.41,92.34.72,14.94,8.52,27.95,12.74,33.95l9.71,43.36v.08l0,.08,4.26,18.16-4.67.06c-1.58,0-38.62.47-44.8.71a85.24,85.24,0,0,0-15.32,2.29c-9.33,2.24-14.82,5.15-18.36,9.75-.3.39-.61.83-.91,1.31-9.62-.4-22.86-.85-33.79-.85q-2.14,0-4.14,0c-44.7.54-54.2,8.58-57.33,11.22l-9.26,7.85,5.05,11,.63,1.36-21.63,5.52L0,388.88l3.09,15,4.42,21.37L10,437.16l8.33.54-.2,50.67L18,502l8.42,1.41v37.29l14.29,1.54,496.84,53.44,2.39.25,2.36-.45c23.49-4.54,49.6-9.44,56.45-10.52,1.81.19,4,.35,6.92.55,4.12.3,9.8.67,16.88,1.11,12,.75,24.08,1.45,24.2,1.45l.66,0h.65l38.57-.93,2.69-.07,2.52-.94L822,537.58l10.81-4L832.39,522l-5.11-142.66-.2-5.6-3.65-4.25-38-44.2c-3.22-3.91-12.14-11.55-32.66-11.83l1.55-6.52,9.39-39.86c3-4.64,8.1-13.8,9.63-24.47l.14-1,0-1,1.55-87.51,0-1.21-.16-1.19c-2.26-17-17.39-54.65-59.74-88.28C691.66,43.76,663,29,630,18.59,590.87,6.26,545.42,0,494.87,0Z"/></g></svg>