<svg xmlns="http://www.w3.org/2000/svg" viewBox="0 0 838.4 625.39"><defs><style>.cls-1{fill:#789904;}</style></defs><title>archtober-silhoutte-Artboard 18</title><g id="art"><path class="cls-1" d="M391.26,21.28l35.87,5.61-25.25,141.2,44.89,6.54L818.93,396.25,814.73,494,307,603.37l-21-55.63L267.69,529l-16.83-9.35-14.49-7-24.78-8.42-23.38-5.61L164.83,494l-22.44-4.21-21.51-4.21-26.18-2.8-22-1.87-26.19-2.34-25.24-.47L34.85,361.65l33.2-6.54,21.51-5.62L117.14,342l24.78-7.48,24.78-9L192,314.43l24.78-13.56L242.91,284,270,261.6,295.28,234l14.49-15.43,18.71-24.31L354.66,134l36.6-112.67M378.2,0l-5,15.41L336.87,127.22,312,184.55l-16.7,21.7L281.43,221l-.08.09-.09.09L256.9,247.8l-25.22,20.87L207,284.52l-23.47,12.85-23.92,10.51-23.7,8.62-24,7.25-27.23,7.38-20.87,5.45L31.18,343l-13.59,2.68L16,359.45,2.42,475.87,0,496.68l20.94.39,24.58.45L71,499.8h.08l21.76,1.85,25.16,2.7,20.7,4.05h.15l22.33,4.19,22.91,4.58,22.17,5.32,22.85,7.76,12.95,6.27L256,544.29l13.53,13.87,19.64,51.93,5.78,15.3L311,622,818.73,512.54l14.35-3.09.63-14.67,4.21-97.71.48-11.34-9.75-5.81L456.49,158.31l-3.25-1.93-3.73-.55L424,152.12,445.83,30.23l3.42-19.11-19.19-3L394.2,2.5,378.2,0Z"/></g></svg>