<svg xmlns="http://www.w3.org/2000/svg" viewBox="0 0 797.64 380.61"><defs><style>.cls-1{fill:#c028b9;}</style></defs><title>archtober-silhoutte-Artboard 13</title><g id="art"><polygon class="cls-1" points="0 365.85 0 208.64 301.14 161.89 301.14 71.84 295.98 69.14 295.49 66.18 289.58 59.05 301.14 56.59 301.14 41.58 447.29 11.07 452.95 11.07 463.28 0 687.17 27.56 684.96 33.46 685.2 36.91 784.35 56.59 784.35 69.14 797.64 71.84 795.18 76.52 791 81.68 784.6 82.42 785.83 354.29 745.73 357.49 725.8 355.52 692.58 355.76 692.58 366.34 666.5 367.82 641.16 361.42 601.06 371.26 492.07 377.42 490.84 379.14 454.18 380.61 0 365.85"/></g></svg>