<svg xmlns="http://www.w3.org/2000/svg" viewBox="0 0 830.81 682.65"><defs><style>.cls-1{fill:#0082ca;}</style></defs><title>archtober-silhoutte-Artboard 20</title><g id="art"><path class="cls-1" d="M469.9,19v7.75l-3.59.82V55.25h66.11v9.49L528,66l.84,114h70v7.19l-3.87,2.21.83,27.11h68.88v3.87l-3.32,3.88.83,28.21h69.43v5l-3.87,3.87.83,28.22H798.8v5.53l-3.87,2.22L796.29,351h15.52v3.32l-4.43,2.21.56,7.75L804.62,367v8.29l-6.93,2.77L804.33,659l-782,4.56L33.1,375.85,29,372.53v-7.75L24,362v-8.3l-5-3.32v-3.32H34.78L37,297.84l-5-3.32-.55-4.43h69.69l.84-30.43-3.32-3.87-.55-4.42h69.42l.84-27.11-5-4.43V215.4h71.1l1.17-27.1-4.22-3.88-.55-5h67.21L299,66.6l-4.61-2.32-.19-8.21h69.38l.84-28.5-4-1.92V19H469.9m19-19H341.36V37.07H274.72l.44,19.42.18,8.22.26,11.43,4.26,2.14-.61,82.16H209.67l2.34,21.1.55,5,.79,7.09,3,2.71v.08H144.4v32l4.5,4H76.59l2.67,21.35.55,4.43.71,5.67,2.27,2.65-.12,4.62H9.93l2.67,21.36.56,4.43,1.07,8.62,3.3,2.2-.92,20.38H0v32.49l5,3.32v9.31L10,376v5.69l3.8,3L3.32,662.83l-.75,19.82,19.85-.11,782-4.56,19.35-.12-.46-19.33L817,390.81l6.62-2.65V375.9l4-3.31-.34-4.79,3.57-1.79V332h-16l-.6-23.8,3.59-2V270.54H747l0-1.58,3.64-3.64V233.47h-70l-.07-2.43,3.11-3.63v-29.9H617.81V161H547.69l-.59-80.75L551.42,79V36.25H488.9V0Z"/></g></svg>