<svg xmlns="http://www.w3.org/2000/svg" viewBox="0 0 792.81 644.54"><defs><style>.cls-1{fill:#0082ca;}</style></defs><title>archtober-silhoutte-Artboard 15</title><g id="art"><polygon class="cls-1" points="3.3 644.54 14.1 356.85 9.96 353.53 9.96 345.78 4.98 343.02 4.98 334.72 0 331.4 0 328.08 15.78 328.08 17.99 278.84 13.01 275.52 12.46 271.09 82.15 271.09 82.99 240.66 79.67 236.79 79.11 232.37 148.54 232.37 149.38 205.26 144.4 200.83 144.4 196.41 215.5 196.41 216.67 169.29 212.45 165.42 211.9 160.44 279.11 160.44 279.95 47.59 275.33 45.28 275.15 37.07 344.53 37.07 345.37 8.57 341.36 6.65 341.36 0 450.9 0 450.9 7.75 447.31 8.57 447.31 36.25 513.42 36.25 513.42 45.74 508.99 47.03 509.83 161 579.81 161 579.81 168.19 575.94 170.4 576.77 197.51 645.64 197.51 645.64 201.38 642.33 205.26 643.16 233.47 712.59 233.47 712.59 238.45 708.72 242.32 709.55 270.54 779.8 270.54 779.8 276.07 775.93 278.29 777.29 331.95 792.81 331.95 792.81 335.27 788.38 337.48 788.94 345.23 785.62 348 785.62 356.29 778.7 359.06 785.33 639.98 3.3 644.54"/></g></svg>