<svg xmlns="http://www.w3.org/2000/svg" viewBox="0 0 797.64 563.75"><defs><style>.cls-1{fill:#ff4438;}</style></defs><title>archtober-silhoutte-Artboard 14</title><g id="art"><path class="cls-1" d="M797.64,506.59l-5.11-142.66-38.11-44.38s-6.5-8.59-32.53-5.34l-8.82,2.32,7-29.27,10.06-42.75s7.13-9.3,8.68-20.14l1.55-87.52C736.92,111.3,686.72-3.47,466.16.08,235.43,3.8,192.06,112.85,188.43,130.66c0,0,1,84.34,1.4,91.77.69,14.64,11.61,27.89,11.61,27.89L211.9,297l8.83,37.64.46,3.71-21.84,7v-5.57l-3.25-4.88s-38.34.46-44.38.7-19.28,2.78-21.61,5.81c0,0-1.62,2.09-1.39,8.13,0,0-30.88-1.64-49.94-1.4s-41.14,2.33-47.18,7.44l5.11,11.15,10.69,5.81L0,384.61,4.41,406l39.27,2.55-28.11,7.21-.24,56.69,8.37,1.39v36.48l496.84,53.44s58.93-11.39,59.62-10.92,48.8,3.25,48.8,3.25l38.57-.93Z"/></g></svg>