<svg xmlns="http://www.w3.org/2000/svg" viewBox="0 0 845.25 419.67"><defs><style>.cls-1{fill:#c028b9;}</style></defs><title>archtober-silhoutte-Artboard 22</title><g id="art"><path class="cls-1" d="M482.28,20,706.17,47.6,704,53.5,704.2,57l99.15,19.68V89.18l13.29,2.7-2.46,4.68L810,101.72l-6.4.74,1.23,271.87-40.1,3.2-19.93-2-33.22.24v10.58l-26.08,1.48-25.34-6.4-40.1,9.84-109,6.15-1.23,1.73-36.66,1.47L19,385.89V228.68l301.14-46.75V91.88L315,89.18l-.49-3-5.91-7.13,11.56-2.46v-15L466.29,31.11H472L482.28,20M475,0l-6.6,7.08-4.85,5.2-1.13.23L316.26,43l-15.12,3.16V61.24L273.94,67l20,24.17,2.65,3.19,1.2,7.23,3.35,1.76v62.27l-285,44.25L0,212.4V404.28l18.38.6,454.18,14.76.69,0,.69,0,36.66-1.48,9.29-.37,1.34-1.88,99.9-5.64,1.75-.09,1.71-.42L660.1,401l20.75,5.24,2.82.71,2.91-.16,26.08-1.48,17.92-1v-9.68l13.35-.1,18.93,1.87,1.69.17,1.69-.13,40.1-3.2,17.57-1.4-.08-17.63-1.17-258,2.1-2.59,4.19-5.17,1.17-1.45.87-1.65,2.46-4.68,11.8-22.41-22.9-4.66V61l-15.3-3L728.42,42.38l4-10.7-23.94-2.94L484.6,1.18,475,0Z"/></g></svg>