<svg xmlns="http://www.w3.org/2000/svg" viewBox="0 0 839.4 601.95"><defs><style>.cls-1{fill:#ff4438;}</style></defs><title>archtober-silhoutte-Artboard 21</title><g id="art"><path class="cls-1" d="M498.39,19c212.1,0,260.86,111.69,264.22,136.85l-1.55,87.52c-1.55,10.84-8.68,20.14-8.68,20.14l-10.07,42.75-7,29.27,8.83-2.32a88.27,88.27,0,0,1,11-.73c16.94,0,21.54,6.07,21.54,6.07l38.11,44.38,5.11,142.66L689.8,574.15l-38.57.93s-48.09-2.79-48.79-3.25h-.11c-2.92,0-59.51,10.93-59.51,10.93L46,529.31V492.83l-8.37-1.39.24-56.69L66,427.54,26.69,425l-4.41-21.38,47.4-12.08L59,385.72l-5.11-11.15c6-5.11,28.13-7.21,47.18-7.44,1.27,0,2.59,0,3.94,0,19.08,0,46,1.43,46,1.43-.24-6,1.39-8.13,1.39-8.13,2.32-3,15.57-5.58,21.61-5.81s44.38-.7,44.38-.7l3.25,4.88v5.57l21.84-7-.46-3.71L234.18,316l-10.46-46.7s-10.92-13.25-11.62-27.89c-.35-7.43-1.39-91.77-1.39-91.77,3.63-17.81,47-126.86,277.73-130.58,3.36,0,6.66-.08,9.95-.08m0-19h0C495,0,491.6,0,488.13.08,433.34,1,384.42,7.79,342.73,20.36c-34.94,10.53-65.12,25.17-89.68,43.5-50.72,37.84-60.06,77.6-61,82l-.4,2,0,2c.11,8.67,1.06,84.9,1.41,92.45.73,15.26,8.46,28.54,12.93,35l9.59,42.8,0,.09,0,.1,3.4,14.52h-.93c-4,.05-38.77.48-44.88.71a89,89,0,0,0-15.9,2.37c-10,2.4-16,5.62-20,10.76h0l-.11.15c-9.48-.38-21.9-.78-32.28-.78-1.43,0-2.83,0-4.17,0A257.1,257.1,0,0,0,70,350.2c-13.82,1.9-22.58,4.94-28.4,9.86l-11,9.32,5.13,11.19L17.58,385.2,0,389.68l3.67,17.77,4.41,21.38L11,443l7.8.5-.2,47.85-.06,16.16L27,508.93v37.45l17,1.82,496.84,53.44,2.84.31,2.8-.55c23-4.45,48.71-9.27,56-10.44,1.81.19,4,.34,6.61.53,4.13.29,9.81.66,16.9,1.1,12,.75,24.09,1.45,24.22,1.46l.77,0h.78l38.57-.93,3.2-.08,3-1.12,130.11-48.56,12.84-4.79-.49-13.69-5.12-142.66-.23-6.65-4.34-5-38-44.21c-3.37-4.06-12.14-11.6-31.17-12.73l.71-3,9.26-39.33c3.24-5.05,8.24-14.3,9.81-25.27l.16-1.17,0-1.18,1.55-87.52,0-1.43-.19-1.42c-2.32-17.41-17.75-56-60.85-90.23-23.84-18.93-52.84-33.86-86.19-44.38C595,6.3,549.24,0,498.39,0Z"/></g></svg>