<svg xmlns="http://www.w3.org/2000/svg" viewBox="0 0 824.81 676.64"><defs><style>.cls-1{fill:#0082ca;}</style></defs><title>archtober-silhouttesArtboard 15</title><g id="art"><path class="cls-1" d="M466.9,16v7.75l-3.59.82V52.25h66.11v9.49L525,63l.84,114h70v7.19l-3.87,2.21.83,27.11h68.88v3.87l-3.32,3.88.83,28.21h69.43v5l-3.87,3.87.83,28.22H795.8v5.53l-3.87,2.22L793.29,348h15.52v3.32l-4.43,2.21.56,7.75L801.62,364v8.29l-6.93,2.77L801.33,656l-782,4.56L30.1,372.85,26,369.53v-7.75L21,359v-8.3l-5-3.32v-3.32H31.78L34,294.84l-5-3.32-.55-4.43H98.15L99,256.66l-3.32-3.87-.55-4.42h69.42l.84-27.11-5-4.43V212.4h71.1l1.17-27.1-4.22-3.88-.55-5h67.21L296,63.6l-4.61-2.32-.19-8.21h69.38l.84-28.5-4-1.92V16H466.9m16-16H341.36V32.75l3.71,1.77L345,37.07h-70.2l.36,16.36.19,8.21.22,9.63,4.31,2.16-.64,87H210l2,17.77.56,5,.66,6,3.16,2.89-.19,4.35H144.4V224l4.75,4.22-.12,4.13H77l2.25,18,.55,4.43.6,4.77,2.43,2.84-.24,8.7H10.33l2.25,18,.55,4.42.91,7.27,3.56,2.37-1.12,24.94H0V356l5,3.32v9.15l5,2.77v6l3.85,3.09L3.32,659.94l-.63,16.7,16.71-.1,782-4.56,16.28-.1-.38-16.28L811,385.79l6.67-2.66V371.49l3.86-3.22-.37-5.26,3.7-1.85V332H808.89l-.72-28.51,3.63-2.08V270.54H741.09l-.18-5.79,3.68-3.67V233.47H674.7l-.2-6.5,3.15-3.67V197.51H608.29l-.06-2,3.58-2.05V161h-70.1l-.63-86,4.34-1.26V36.25H482.9V0Z"/></g></svg>